<svg xmlns="http://www.w3.org/2000/svg" xmlns:xlink="http://www.w3.org/1999/xlink" width="1024" zoomAndPan="magnify" viewBox="0 0 768 576" height="768" preserveAspectRatio="xMidYMid meet" version="1.0"><defs><g/><clipPath id="9a7b3d81ea"><path d="M 265.640625 245 L 336.972656 245 L 336.972656 301.683594 L 265.640625 301.683594 Z M 265.640625 245 " clip-rule="nonzero"/></clipPath><clipPath id="791229d3a8"><path d="M 268.640625 307.890625 L 333.890625 307.890625 L 333.890625 317.640625 L 268.640625 317.640625 Z M 268.640625 307.890625 " clip-rule="nonzero"/></clipPath></defs><g clip-path="url(#9a7b3d81ea)"><path fill="#d71920" d="M 282.171875 301.425781 C 280.546875 299.257812 275.328125 301.421875 275.914062 299.335938 L 270.285156 299.3125 L 301.246094 248.851562 L 332.304688 299.15625 L 327.167969 299.15625 C 327.816406 301.617188 321.363281 298.855469 321.152344 301.425781 L 336.972656 301.425781 L 301.3125 245.003906 L 265.652344 301.425781 Z M 282.171875 301.425781 " fill-opacity="1" fill-rule="evenodd"/></g><g fill="#ffffff" fill-opacity="1"><g transform="translate(285.427108, 303.511735)"><g><path d="M 3.5625 -6.1875 L 3.5625 0 L 2.40625 0 L 2.40625 -6.1875 L 0.25 -6.1875 L 0.25 -7.21875 L 5.71875 -7.21875 L 5.71875 -6.1875 Z M 3.5625 -6.1875 "/></g></g></g><g fill="#ffffff" fill-opacity="1"><g transform="translate(291.390967, 303.511735)"><g><path d="M 0.890625 0 L 0.890625 -7.21875 L 5.515625 -7.21875 L 5.515625 -6.1875 L 2.0625 -6.1875 L 2.0625 -4.171875 L 5.1875 -4.171875 L 5.1875 -3.140625 L 2.0625 -3.140625 L 2.0625 -1.03125 L 5.515625 -1.03125 L 5.515625 0 Z M 0.890625 0 "/></g></g></g><g fill="#ffffff" fill-opacity="1"><g transform="translate(297.520205, 303.511735)"><g><path d="M 6.390625 0 L 5.015625 0 L 3.265625 -2.875 L 3.234375 -2.875 L 1.515625 0 L 0.21875 0 L 2.5625 -3.6875 L 0.296875 -7.21875 L 1.671875 -7.21875 L 3.328125 -4.53125 L 3.34375 -4.53125 L 5 -7.21875 L 6.296875 -7.21875 L 4.03125 -3.703125 Z M 6.390625 0 "/></g></g></g><g fill="#ffffff" fill-opacity="1"><g transform="translate(304.124899, 303.511735)"><g><path d="M 5.40625 0 L 4.75 -1.953125 L 2.046875 -1.953125 L 1.421875 0 L 0.234375 0 L 2.6875 -7.21875 L 4.15625 -7.21875 L 6.625 0 Z M 3.421875 -6.140625 L 3.375 -6.140625 L 2.328125 -2.953125 L 4.453125 -2.953125 Z M 3.421875 -6.140625 "/></g></g></g><g fill="#ffffff" fill-opacity="1"><g transform="translate(310.967321, 303.511735)"><g><path d="M 3.046875 0.125 C 2.441406 0.125 1.925781 0.015625 1.5 -0.203125 C 1.082031 -0.421875 0.71875 -0.71875 0.40625 -1.09375 L 1.21875 -1.84375 C 1.476562 -1.539062 1.757812 -1.304688 2.0625 -1.140625 C 2.375 -0.984375 2.722656 -0.90625 3.109375 -0.90625 C 3.578125 -0.90625 3.925781 -1.007812 4.15625 -1.21875 C 4.394531 -1.425781 4.515625 -1.707031 4.515625 -2.0625 C 4.515625 -2.34375 4.429688 -2.566406 4.265625 -2.734375 C 4.097656 -2.898438 3.800781 -3.023438 3.375 -3.109375 L 2.734375 -3.21875 C 2.035156 -3.34375 1.507812 -3.570312 1.15625 -3.90625 C 0.800781 -4.238281 0.625 -4.695312 0.625 -5.28125 C 0.625 -5.59375 0.6875 -5.878906 0.8125 -6.140625 C 0.9375 -6.398438 1.101562 -6.613281 1.3125 -6.78125 C 1.53125 -6.957031 1.796875 -7.09375 2.109375 -7.1875 C 2.421875 -7.289062 2.769531 -7.34375 3.15625 -7.34375 C 3.695312 -7.34375 4.164062 -7.25 4.5625 -7.0625 C 4.96875 -6.875 5.3125 -6.597656 5.59375 -6.234375 L 4.78125 -5.515625 C 4.59375 -5.753906 4.363281 -5.945312 4.09375 -6.09375 C 3.820312 -6.238281 3.488281 -6.3125 3.09375 -6.3125 C 2.675781 -6.3125 2.351562 -6.226562 2.125 -6.0625 C 1.90625 -5.894531 1.796875 -5.65625 1.796875 -5.34375 C 1.796875 -5.03125 1.882812 -4.800781 2.0625 -4.65625 C 2.25 -4.507812 2.539062 -4.398438 2.9375 -4.328125 L 3.578125 -4.1875 C 4.304688 -4.050781 4.835938 -3.816406 5.171875 -3.484375 C 5.503906 -3.148438 5.671875 -2.695312 5.671875 -2.125 C 5.671875 -1.78125 5.609375 -1.46875 5.484375 -1.1875 C 5.367188 -0.914062 5.195312 -0.679688 4.96875 -0.484375 C 4.75 -0.296875 4.476562 -0.144531 4.15625 -0.03125 C 3.832031 0.0703125 3.460938 0.125 3.046875 0.125 Z M 3.046875 0.125 "/></g></g></g><g clip-path="url(#791229d3a8)"><path fill="#283b7e" d="M 341.824219 307.890625 L 60.179688 307.890625 C 54.625 307.890625 50.121094 312.425781 50.121094 318.015625 C 50.121094 323.605469 54.625 328.140625 60.179688 328.140625 L 341.824219 328.140625 C 347.378906 328.140625 351.882812 323.605469 351.882812 318.015625 C 351.882812 312.425781 347.378906 307.890625 341.824219 307.890625 Z M 341.824219 307.890625 " fill-opacity="1" fill-rule="nonzero"/></g><g fill="#ffffff" fill-opacity="1"><g transform="translate(336.926823, 308.250007)"><g><path d="M 5.609375 0 L 5.609375 -37.4375 L 13.46875 -37.4375 L 13.46875 -31.25 L 13.828125 -31.25 C 14.640625 -33.257812 15.875 -34.9375 17.53125 -36.28125 C 19.1875 -37.625 21.457031 -38.296875 24.34375 -38.296875 C 28.175781 -38.296875 31.160156 -37.035156 33.296875 -34.515625 C 35.429688 -32.003906 36.5 -28.421875 36.5 -23.765625 L 36.5 0 L 28.65625 0 L 28.65625 -22.75 C 28.65625 -28.601562 26.300781 -31.53125 21.59375 -31.53125 C 20.59375 -31.53125 19.597656 -31.398438 18.609375 -31.140625 C 17.628906 -30.878906 16.753906 -30.484375 15.984375 -29.953125 C 15.210938 -29.421875 14.597656 -28.75 14.140625 -27.9375 C 13.691406 -27.125 13.46875 -26.164062 13.46875 -25.0625 L 13.46875 0 Z M 5.609375 0 "/></g></g></g><g fill="#ffffff" fill-opacity="1"><g transform="translate(378.686804, 308.250007)"><g><path d="M 20.296875 0.859375 C 17.710938 0.859375 15.351562 0.40625 13.21875 -0.5 C 11.082031 -1.414062 9.269531 -2.722656 7.78125 -4.421875 C 6.289062 -6.128906 5.132812 -8.191406 4.3125 -10.609375 C 3.5 -13.035156 3.09375 -15.738281 3.09375 -18.71875 C 3.09375 -21.695312 3.5 -24.394531 4.3125 -26.8125 C 5.132812 -29.238281 6.289062 -31.300781 7.78125 -33 C 9.269531 -34.707031 11.082031 -36.015625 13.21875 -36.921875 C 15.351562 -37.835938 17.710938 -38.296875 20.296875 -38.296875 C 22.890625 -38.296875 25.253906 -37.835938 27.390625 -36.921875 C 29.523438 -36.015625 31.335938 -34.707031 32.828125 -33 C 34.316406 -31.300781 35.46875 -29.238281 36.28125 -26.8125 C 37.101562 -24.394531 37.515625 -21.695312 37.515625 -18.71875 C 37.515625 -15.738281 37.101562 -13.035156 36.28125 -10.609375 C 35.46875 -8.191406 34.316406 -6.128906 32.828125 -4.421875 C 31.335938 -2.722656 29.523438 -1.414062 27.390625 -0.5 C 25.253906 0.40625 22.890625 0.859375 20.296875 0.859375 Z M 20.296875 -5.609375 C 22.992188 -5.609375 25.15625 -6.4375 26.78125 -8.09375 C 28.414062 -9.75 29.234375 -12.234375 29.234375 -15.546875 L 29.234375 -21.890625 C 29.234375 -25.203125 28.414062 -27.6875 26.78125 -29.34375 C 25.15625 -31 22.992188 -31.828125 20.296875 -31.828125 C 17.609375 -31.828125 15.445312 -31 13.8125 -29.34375 C 12.1875 -27.6875 11.375 -25.203125 11.375 -21.890625 L 11.375 -15.546875 C 11.375 -12.234375 12.1875 -9.75 13.8125 -8.09375 C 15.445312 -6.4375 17.609375 -5.609375 20.296875 -5.609375 Z M 20.296875 -5.609375 "/></g></g></g><g fill="#ffffff" fill-opacity="1"><g transform="translate(419.294789, 308.250007)"><g><path d="M 13.609375 0 C 10.921875 0 8.914062 -0.679688 7.59375 -2.046875 C 6.269531 -3.421875 5.609375 -5.332031 5.609375 -7.78125 L 5.609375 -53.28125 L 13.46875 -53.28125 L 13.46875 -6.40625 L 18.640625 -6.40625 L 18.640625 0 Z M 13.609375 0 "/></g></g></g><g fill="#ffffff" fill-opacity="1"><g transform="translate(439.814776, 308.250007)"><g><path d="M 20.296875 0.859375 C 17.710938 0.859375 15.351562 0.40625 13.21875 -0.5 C 11.082031 -1.414062 9.269531 -2.722656 7.78125 -4.421875 C 6.289062 -6.128906 5.132812 -8.191406 4.3125 -10.609375 C 3.5 -13.035156 3.09375 -15.738281 3.09375 -18.71875 C 3.09375 -21.695312 3.5 -24.394531 4.3125 -26.8125 C 5.132812 -29.238281 6.289062 -31.300781 7.78125 -33 C 9.269531 -34.707031 11.082031 -36.015625 13.21875 -36.921875 C 15.351562 -37.835938 17.710938 -38.296875 20.296875 -38.296875 C 22.890625 -38.296875 25.253906 -37.835938 27.390625 -36.921875 C 29.523438 -36.015625 31.335938 -34.707031 32.828125 -33 C 34.316406 -31.300781 35.46875 -29.238281 36.28125 -26.8125 C 37.101562 -24.394531 37.515625 -21.695312 37.515625 -18.71875 C 37.515625 -15.738281 37.101562 -13.035156 36.28125 -10.609375 C 35.46875 -8.191406 34.316406 -6.128906 32.828125 -4.421875 C 31.335938 -2.722656 29.523438 -1.414062 27.390625 -0.5 C 25.253906 0.40625 22.890625 0.859375 20.296875 0.859375 Z M 20.296875 -5.609375 C 22.992188 -5.609375 25.15625 -6.4375 26.78125 -8.09375 C 28.414062 -9.75 29.234375 -12.234375 29.234375 -15.546875 L 29.234375 -21.890625 C 29.234375 -25.203125 28.414062 -27.6875 26.78125 -29.34375 C 25.15625 -31 22.992188 -31.828125 20.296875 -31.828125 C 17.609375 -31.828125 15.445312 -31 13.8125 -29.34375 C 12.1875 -27.6875 11.375 -25.203125 11.375 -21.890625 L 11.375 -15.546875 C 11.375 -12.234375 12.1875 -9.75 13.8125 -8.09375 C 15.445312 -6.4375 17.609375 -5.609375 20.296875 -5.609375 Z M 20.296875 -5.609375 "/></g></g></g><g fill="#ffffff" fill-opacity="1"><g transform="translate(480.422761, 308.250007)"><g><path d="M 38.453125 3.53125 C 38.453125 7.414062 36.960938 10.34375 33.984375 12.3125 C 31.003906 14.28125 26.15625 15.265625 19.4375 15.265625 C 16.363281 15.265625 13.757812 15.0625 11.625 14.65625 C 9.488281 14.25 7.734375 13.660156 6.359375 12.890625 C 4.992188 12.117188 4 11.179688 3.375 10.078125 C 2.757812 8.972656 2.453125 7.703125 2.453125 6.265625 C 2.453125 4.203125 3.015625 2.59375 4.140625 1.4375 C 5.265625 0.289062 6.835938 -0.5 8.859375 -0.9375 L 8.859375 -1.734375 C 6.023438 -2.640625 4.609375 -4.554688 4.609375 -7.484375 C 4.609375 -9.410156 5.253906 -10.890625 6.546875 -11.921875 C 7.847656 -12.953125 9.410156 -13.679688 11.234375 -14.109375 L 11.234375 -14.40625 C 9.023438 -15.457031 7.332031 -16.929688 6.15625 -18.828125 C 4.976562 -20.722656 4.390625 -22.941406 4.390625 -25.484375 C 4.390625 -29.328125 5.671875 -32.421875 8.234375 -34.765625 C 10.804688 -37.117188 14.492188 -38.296875 19.296875 -38.296875 C 21.929688 -38.296875 24.1875 -37.914062 26.0625 -37.15625 L 26.0625 -38.15625 C 26.0625 -39.84375 26.457031 -41.148438 27.25 -42.078125 C 28.039062 -43.015625 29.273438 -43.484375 30.953125 -43.484375 L 36.71875 -43.484375 L 36.71875 -37.15625 L 29.09375 -37.15625 L 29.09375 -35.640625 C 30.769531 -34.535156 32.0625 -33.109375 32.96875 -31.359375 C 33.882812 -29.609375 34.34375 -27.648438 34.34375 -25.484375 C 34.34375 -21.691406 33.046875 -18.628906 30.453125 -16.296875 C 27.859375 -13.972656 24.164062 -12.8125 19.375 -12.8125 C 17.539062 -12.8125 15.90625 -13.003906 14.46875 -13.390625 C 13.507812 -13.054688 12.671875 -12.585938 11.953125 -11.984375 C 11.234375 -11.390625 10.875 -10.609375 10.875 -9.640625 C 10.875 -8.640625 11.328125 -7.921875 12.234375 -7.484375 C 13.148438 -7.054688 14.445312 -6.84375 16.125 -6.84375 L 25.34375 -6.84375 C 29.945312 -6.84375 33.28125 -5.914062 35.34375 -4.0625 C 37.414062 -2.21875 38.453125 0.3125 38.453125 3.53125 Z M 31.109375 4.390625 C 31.109375 3.097656 30.613281 2.066406 29.625 1.296875 C 28.644531 0.523438 26.859375 0.140625 24.265625 0.140625 L 11.59375 0.140625 C 9.863281 1.148438 9 2.59375 9 4.46875 C 9 6 9.609375 7.234375 10.828125 8.171875 C 12.054688 9.109375 14.132812 9.578125 17.0625 9.578125 L 21.953125 9.578125 C 28.054688 9.578125 31.109375 7.847656 31.109375 4.390625 Z M 19.375 -18.5 C 21.675781 -18.5 23.460938 -19.015625 24.734375 -20.046875 C 26.003906 -21.078125 26.640625 -22.675781 26.640625 -24.84375 L 26.640625 -26.28125 C 26.640625 -28.4375 26.003906 -30.03125 24.734375 -31.0625 C 23.460938 -32.09375 21.675781 -32.609375 19.375 -32.609375 C 17.0625 -32.609375 15.269531 -32.09375 14 -31.0625 C 12.726562 -30.03125 12.09375 -28.4375 12.09375 -26.28125 L 12.09375 -24.84375 C 12.09375 -22.675781 12.726562 -21.078125 14 -20.046875 C 15.269531 -19.015625 17.0625 -18.5 19.375 -18.5 Z M 19.375 -18.5 "/></g></g></g><g fill="#ffffff" fill-opacity="1"><g transform="translate(519.086738, 308.250007)"><g><path d="M 28.578125 -37.4375 L 36.140625 -37.4375 L 20.375 7.421875 C 19.945312 8.660156 19.457031 9.722656 18.90625 10.609375 C 18.351562 11.503906 17.703125 12.226562 16.953125 12.78125 C 16.210938 13.332031 15.3125 13.738281 14.25 14 C 13.195312 14.269531 11.953125 14.40625 10.515625 14.40625 L 5.96875 14.40625 L 5.96875 7.984375 L 12.3125 7.984375 L 14.46875 1.65625 L 0.859375 -37.4375 L 8.71875 -37.4375 L 16.203125 -15.40625 L 18.359375 -7.265625 L 18.71875 -7.265625 L 21.09375 -15.40625 Z M 28.578125 -37.4375 "/></g></g></g></svg>