<svg xmlns="http://www.w3.org/2000/svg" xmlns:xlink="http://www.w3.org/1999/xlink" width="1024" zoomAndPan="magnify" viewBox="0 0 768 576" height="768" preserveAspectRatio="xMidYMid meet" version="1.0"><defs><g/><clipPath id="cc1397a9dd"><path d="M 239.34375 173 L 528.84375 173 L 528.84375 403 L 239.34375 403 Z M 239.34375 173 " clip-rule="nonzero"/></clipPath></defs><g clip-path="url(#cc1397a9dd)"><path fill="#ffffff" d="M 306.425781 402.011719 C 299.839844 393.203125 278.648438 401.996094 281.035156 393.523438 L 258.195312 393.429688 L 383.851562 188.632812 L 509.894531 392.804688 L 489.054688 392.804688 C 491.683594 402.792969 465.492188 391.570312 464.644531 402.011719 L 528.84375 402.011719 L 384.109375 173.023438 L 239.390625 402.011719 Z M 306.425781 402.011719 " fill-opacity="1" fill-rule="evenodd"/></g><g fill="#ff5757" fill-opacity="1"><g transform="translate(319.546861, 415.200003)"><g><path d="M 14.484375 -25.109375 L 14.484375 0 L 9.75 0 L 9.75 -25.109375 L 1.015625 -25.109375 L 1.015625 -29.3125 L 23.21875 -29.3125 L 23.21875 -25.109375 Z M 14.484375 -25.109375 "/></g></g></g><g fill="#ff5757" fill-opacity="1"><g transform="translate(343.780857, 415.200003)"><g><path d="M 3.609375 0 L 3.609375 -29.3125 L 22.390625 -29.3125 L 22.390625 -25.109375 L 8.359375 -25.109375 L 8.359375 -16.96875 L 21.078125 -16.96875 L 21.078125 -12.765625 L 8.359375 -12.765625 L 8.359375 -4.203125 L 22.390625 -4.203125 L 22.390625 0 Z M 3.609375 0 "/></g></g></g><g fill="#ff5757" fill-opacity="1"><g transform="translate(368.686851, 415.200003)"><g><path d="M 25.953125 0 L 20.375 0 L 13.265625 -11.671875 L 13.140625 -11.671875 L 6.125 0 L 0.875 0 L 10.375 -15 L 1.21875 -29.3125 L 6.796875 -29.3125 L 13.484375 -18.390625 L 13.5625 -18.390625 L 20.328125 -29.3125 L 25.578125 -29.3125 L 16.34375 -15.03125 Z M 25.953125 0 "/></g></g></g><g fill="#ff5757" fill-opacity="1"><g transform="translate(395.524847, 415.200003)"><g><path d="M 21.921875 0 L 19.28125 -7.9375 L 8.3125 -7.9375 L 5.75 0 L 0.921875 0 L 10.921875 -29.3125 L 16.890625 -29.3125 L 26.875 0 Z M 13.90625 -24.953125 L 13.6875 -24.953125 L 9.453125 -12.015625 L 18.109375 -12.015625 Z M 13.90625 -24.953125 "/></g></g></g><g fill="#ff5757" fill-opacity="1"><g transform="translate(423.32884, 415.200003)"><g><path d="M 12.390625 0.5 C 9.921875 0.5 7.828125 0.0507812 6.109375 -0.84375 C 4.390625 -1.738281 2.914062 -2.941406 1.6875 -4.453125 L 4.953125 -7.515625 C 5.992188 -6.253906 7.132812 -5.300781 8.375 -4.65625 C 9.625 -4.019531 11.046875 -3.703125 12.640625 -3.703125 C 14.515625 -3.703125 15.925781 -4.117188 16.875 -4.953125 C 17.832031 -5.796875 18.3125 -6.929688 18.3125 -8.359375 C 18.3125 -9.503906 17.972656 -10.410156 17.296875 -11.078125 C 16.628906 -11.753906 15.441406 -12.257812 13.734375 -12.59375 L 11.125 -13.0625 C 8.269531 -13.59375 6.128906 -14.53125 4.703125 -15.875 C 3.273438 -17.21875 2.5625 -19.066406 2.5625 -21.421875 C 2.5625 -22.710938 2.804688 -23.878906 3.296875 -24.921875 C 3.785156 -25.972656 4.46875 -26.851562 5.34375 -27.5625 C 6.226562 -28.28125 7.300781 -28.832031 8.5625 -29.21875 C 9.820312 -29.613281 11.238281 -29.8125 12.8125 -29.8125 C 15.019531 -29.8125 16.9375 -29.425781 18.5625 -28.65625 C 20.1875 -27.894531 21.570312 -26.785156 22.71875 -25.328125 L 19.40625 -22.390625 C 18.644531 -23.367188 17.71875 -24.148438 16.625 -24.734375 C 15.539062 -25.328125 14.1875 -25.625 12.5625 -25.625 C 10.875 -25.625 9.566406 -25.285156 8.640625 -24.609375 C 7.722656 -23.941406 7.265625 -22.960938 7.265625 -21.671875 C 7.265625 -20.441406 7.640625 -19.523438 8.390625 -18.921875 C 9.148438 -18.316406 10.328125 -17.863281 11.921875 -17.5625 L 14.53125 -17.015625 C 17.46875 -16.453125 19.613281 -15.5 20.96875 -14.15625 C 22.332031 -12.8125 23.015625 -10.960938 23.015625 -8.609375 C 23.015625 -7.234375 22.773438 -5.984375 22.296875 -4.859375 C 21.828125 -3.742188 21.132812 -2.785156 20.21875 -1.984375 C 19.3125 -1.191406 18.195312 -0.578125 16.875 -0.140625 C 15.5625 0.285156 14.066406 0.5 12.390625 0.5 Z M 12.390625 0.5 "/></g></g></g></svg>